<?xml version="1.0" standalone="no"?>
<!DOCTYPE svg PUBLIC "-//W3C//DTD SVG 1.1//EN" "http://www.w3.org/Graphics/SVG/1.1/DTD/svg11.dtd" >
<svg xmlns="http://www.w3.org/2000/svg">
<metadata>Generated by IcoMoon</metadata>
<defs>
<font id="icomoon" horiz-adv-x="1024">
<font-face units-per-em="1024" ascent="960" descent="-64" />
<missing-glyph horiz-adv-x="1024" />
<glyph unicode="&#x20;" d="" horiz-adv-x="512" />
<glyph unicode="&#xe600;" d="M298.68 515.4l213.32-213.32 213.32 213.32z" />
<glyph unicode="&#xe601;" d="M256 366.060h128v128h-128v-128zM256 174.080h128v128h-128v-128zM320.020 942.080h-128v-128h128v128zM448.020 174.080h128v128h-128v-128zM448.020 366.060h128v128h-128v-128zM896 942.080v-128c0-35.348-28.59-64.020-64.020-64.020h-128c-35.389 0-64.020 28.672-64.020 64.020v128h-256v-128c0-35.348-28.59-64.020-64.020-64.020h-128c-35.389 0-64.020 28.672-64.020 64.020v128c-70.656 0-128-57.344-128-128v-768c0-70.656 57.344-128 128-128h768c70.656 0 128 57.344 128 128v768c0 70.656-57.344 128-128 128zM896 110.060c0-35.389-28.59-64.020-64.020-64.020h-640c-35.389 0-64.020 28.59-64.020 64.020v448.020c0 35.308 28.59 64.020 64.020 64.020h640c35.389 0 64.020-28.672 64.020-64.020v-448.020zM640 174.080h128v128h-128v-128zM640 366.060h128v128h-128v-128zM832.020 942.080h-128v-128h128v128z" />
<glyph unicode="&#xe602;" d="M874.004 792.125c-199.885 199.926-524.083 199.926-724.050 0-200.008-199.926-200.008-524.165 0-724.050 199.926-200.008 524.165-200.008 724.050 0 200.008 199.885 200.008 524.083 0 724.050zM783.483 158.597c-149.955-150.036-393.093-150.036-543.048 0-149.955 149.955-149.955 393.093 0 543.048s393.093 149.955 543.048 0c150.036-149.996 150.036-393.093 0-543.048zM602.481 430.080l135.741-135.741-90.481-90.481-135.741 135.741-135.741-135.741-90.563 90.481 135.741 135.741-135.741 135.741 90.563 90.563 135.741-135.741 135.741 135.741 90.481-90.563z" />
<glyph unicode="&#xe603;" d="M495.534 345.58l209.388-210.002c16.63-16.671 42.23-15.36 54.886 4.506 37.56 59.474 59.433 129.884 59.433 205.455 0 90.931-31.621 174.326-84.132 240.271l-239.575-240.23zM384 327.844v313.795c-144.671-20.767-256-145.285-256-296.059 0-165.396 133.734-299.54 298.68-299.54 67.052 0 128.778 22.446 178.586 59.843l-221.266 221.921zM696.771 676.987c16.63 16.671 15.565 42.639-3.809 56.033-53.453 37.028-114.975 63.119-181.371 75.325-23.224 4.26-42.271-13.312-42.271-36.905v-322.56l227.451 228.147z" />
<glyph unicode="&#xe604;" d="M48.005-81.92h799.99c27.812 0 48.005 20.193 48.005 48.005v896c0 27.812-20.193 48.005-48.005 48.005h-128c-8.847 0-16.015-7.168-16.015-16.015s7.168-16.015 16.015-16.015h128c10.035 0 16.015-5.98 16.015-16.015v-896c0-10.035-5.98-16.015-16.015-16.015h-799.99c-10.035 0-16.015 5.98-16.015 16.015v896c0 10.035 5.98 16.015 16.015 16.015h128c8.847 0 16.015 7.168 16.015 16.015s-7.168 16.015-16.015 16.015h-128c-27.812 0-48.005-20.193-48.005-48.005v-896c0-27.812 20.193-48.005 48.005-48.005zM176.005 782.090c8.847 0 16.015 7.168 16.015 16.015s-7.168 16.015-16.015 16.015h-64.020c-8.847 0-16.015-7.168-16.015-16.015v-768c0-8.847 7.168-16.015 16.015-16.015h671.99c8.847 0 16.015 7.168 16.015 16.015v768c0 8.847-7.168 16.015-16.015 16.015h-64.020c-8.847 0-16.015-7.168-16.015-16.015s7.168-16.015 16.015-16.015h48.005v-736.010h-640v736.010h48.005zM287.99 718.070h320.020c38.871 0 64.020 25.108 64.020 64.020v144.015c0 8.847-7.168 16.015-16.015 16.015h-415.99c-8.847 0-16.015-7.168-16.015-16.015v-144.015c0-38.871 25.108-64.020 64.020-64.020zM256 910.090h384v-128c0-21.258-10.772-31.99-31.99-31.99h-320.020c-21.217 0-31.99 10.772-31.99 31.99v128zM272.015 430.080h352.010c8.847 0 16.015 7.168 16.015 16.015s-7.168 16.015-16.015 16.015h-352.010c-8.847 0-16.015-7.168-16.015-16.015s7.168-16.015 16.015-16.015zM272.015 558.080h352.010c8.847 0 16.015 7.168 16.015 16.015s-7.168 16.015-16.015 16.015h-352.010c-8.847 0-16.015-7.168-16.015-16.015s7.168-16.015 16.015-16.015zM272.015 302.080h352.010c8.847 0 16.015 7.168 16.015 16.015s-7.168 16.015-16.015 16.015h-352.010c-8.847 0-16.015-7.168-16.015-16.015s7.168-16.015 16.015-16.015zM272.015 174.080h352.010c8.847 0 16.015 7.168 16.015 16.015s-7.168 16.015-16.015 16.015h-352.010c-8.847 0-16.015-7.168-16.015-16.015s7.168-16.015 16.015-16.015z" horiz-adv-x="901" />
<glyph unicode="&#xe605;" d="M896-81.92h-768c-70.656 0-128 57.344-128 128v768c0 70.656 57.344 128 128 128h576.020l-128-128h-384c-35.348 0-64.020-28.672-64.020-64.020v-640c0-35.389 28.672-64.020 64.020-64.020h640c35.389 0 64.020 28.59 64.020 64.020v384l128 128v-576.020c0-70.656-57.344-128-128-128zM896 814.080l-64.020 64.020v64.020c0 0 192.020 1.966 192.020-192.020h-64.020l-64.020 64.020zM320.020 238.060v192.020h64.020l128-128v-64.020h-192.020zM896 686.080l-320.020-320.020-128 128 320.020 320.020 128-128z" />
<glyph unicode="&#xe606;" d="M263.987 695.828l-13.599 10.977c-5.652 4.547-11.51 3.891-16.015-1.679l-52.552-63.734-29.491 23.798c-5.652 4.588-11.51 3.932-16.056-1.679l-11.018-13.599c-2.294-2.826-3.277-5.652-2.99-8.438s1.884-5.325 4.669-7.619l51.405-41.574c2.499-2.007 4.997-3.031 7.496-3.031 3.154 0 6.021 1.597 8.52 4.71l71.27 85.811c4.547 5.652 3.932 11.469-1.679 16.056zM127.017 485.13l51.405-41.574c2.499-2.007 4.997-3.031 7.496-3.031 3.154 0 6.021 1.597 8.52 4.71l71.27 85.811c4.547 5.612 3.932 11.469-1.679 16.056l-13.599 10.977c-5.652 4.547-11.51 3.891-16.015-1.679l-52.552-63.734-29.491 23.798c-5.652 4.547-11.51 3.932-16.056-1.679l-11.018-13.599c-2.294-2.826-3.277-5.652-2.99-8.438s1.884-5.325 4.669-7.619zM263.987 387.932l-13.599 10.977c-5.652 4.547-11.51 3.891-16.015-1.679l-52.552-63.734-29.491 23.757c-5.652 4.588-11.51 3.932-16.056-1.679l-11.018-13.599c-2.294-2.826-3.277-5.652-2.99-8.438s1.884-5.325 4.669-7.619l51.405-41.574c2.499-2.007 4.997-3.031 7.496-3.031 3.154 0 6.021 1.597 8.52 4.71l71.27 85.811c4.547 5.612 3.932 11.469-1.679 16.056zM346.358 610.099h469.279c4.628 0 8.356 3.727 8.356 8.356v61.317c0 4.628-3.727 8.356-8.356 8.356h-469.279c-4.628 0-8.356-3.727-8.356-8.356v-61.317c0-4.628 3.727-8.356 8.356-8.356zM346.276 462.070h413.327c4.342 0 8.397 3.113 8.397 7.782v61.563c0 4.628-4.055 8.643-8.397 8.643h-413.327c-4.342 0-8.274-4.014-8.274-8.643v-61.563c0-4.628 3.973-7.782 8.274-7.782zM346.44 300.073h444.867c4.506 0 8.684 5.652 8.684 10.772v59.023c0 5.12-4.178 8.233-8.684 8.233h-444.867c-4.506 0-8.479-3.113-8.479-8.233v-59.023c0-5.12 3.932-10.772 8.479-10.772zM873.636 230.072h-527.278c-4.628 0-8.356-3.727-8.356-8.356v-61.276c0-4.628 3.727-8.356 8.356-8.356h527.278c4.628 0 8.356 3.727 8.356 8.356v61.276c0 4.628-3.727 8.356-8.356 8.356z" />
<glyph unicode="&#xe607;" d="M316.375 591.79l195.625-195.625 195.625 195.625 60.375-60.375-256-256-256 256z" />
<glyph unicode="&#xe608;" d="M870.4 890.88h-460.8c-56.32 0-101.376-46.080-101.376-102.4v-153.6h101.376v153.6h460.8v-716.8h-460.8v102.4h-101.376v-102.4c0-56.32 45.056-102.4 101.376-102.4h460.8c56.32 0 102.4 46.080 102.4 102.4v716.8c0 56.32-46.080 102.4-102.4 102.4zM512 204.8l204.8 199.68-204.8 199.68v-122.88h-460.8v-153.6h460.8v-122.88z" />
<glyph unicode="&#xe609;" d="M213.32 942.080h597.32q53.002 0 90.481-37.519t37.519-90.481v-768q0-53.002-37.519-90.481t-90.481-37.519h-597.32q-53.002 0-90.481 37.519t-37.519 90.481v768q0 53.002 37.519 90.481t90.481 37.519zM341.32 216.76h341.32q17.654 0 30.147-12.493t12.493-30.147-12.493-30.147-30.147-12.493h-341.32q-17.654 0-30.147 12.493t-12.493 30.147 12.493 30.147 30.147 12.493zM341.32 387.4h341.32q17.654 0 30.147-12.493t12.493-30.147-12.493-30.147-30.147-12.493h-341.32q-17.654 0-30.147 12.493t-12.493 30.147 12.493 30.147 30.147 12.493zM810.68 856.76h-597.32q-17.654 0-30.147-12.493t-12.493-30.147v-768q0-17.654 12.493-30.147t30.147-12.493h597.32q17.654 0 30.147 12.493t12.493 30.147v768q0 17.654-12.493 30.147t-30.147 12.493zM341.32 558.080h341.32q17.654 0 30.147-12.493t12.493-30.147-12.493-30.147-30.147-12.493h-341.32q-17.654 0-30.147 12.493t-12.493 30.147 12.493 30.147 30.147 12.493zM341.32 728.76h170.68q17.654 0 30.147-12.493t12.493-30.147-12.493-30.147-30.147-12.493h-170.68q-17.654 0-30.147 12.493t-12.493 30.147 12.493 30.147 30.147 12.493z" />
<glyph unicode="&#xe60a;" d="M512 942.080c-282.747 0-512-229.253-512-512s229.253-512 512-512 512 229.253 512 512-229.253 512-512 512zM512 46.080c-212.050 0-384 171.95-384 384s171.95 384 384 384 384-171.95 384-384-171.95-384-384-384zM768 366.060h-192.020v-192.020h-128v192.020h-192.020v128h192.020v192.020h128v-192.020h192.020z" />
<glyph unicode="&#xe60b;" d="M16.015 846.070c-8.847 0-16.015-7.168-16.015-16.015v-543.99c0-26.46 21.545-48.005 48.005-48.005h896c26.46 0 48.005 21.545 48.005 48.005v543.99c0 8.847-7.168 16.015-16.015 16.015s-16.015-7.168-16.015-16.015v-543.99c0-8.847-7.168-16.015-16.015-16.015h-896c-8.847 0-16.015 7.168-16.015 16.015v543.99c0 8.847-7.168 16.015-16.015 16.015zM1040.015 942.080h-1088.020c-8.847 0-16.015-7.168-16.015-16.015s7.168-16.015 16.015-16.015h1088.020c8.847 0 16.015 7.168 16.015 16.015s-7.168 16.015-16.015 16.015zM379.331 681.411c-5.857 5.857-15.196 6.267-21.586 0.983l-192.020-159.99c-6.799-5.652-7.7-15.729-2.048-22.569s15.729-7.7 22.569-2.048l180.756 150.651 181.658-181.658c3.113-3.154 7.209-4.71 11.305-4.71s8.192 1.556 11.346 4.669l228.68 228.721v-121.364c0-8.847 7.168-16.015 16.015-16.015s16.015 7.168 16.015 16.015v159.99c0 2.089-0.41 4.178-1.229 6.103-1.638 3.891-4.751 7.045-8.684 8.684-1.966 0.819-4.014 1.229-6.103 1.229h-159.99c-8.847 0-16.015-7.168-16.015-16.015s7.168-16.015 16.015-16.015h121.364l-217.375-217.375-180.675 180.716zM257.843-73.359c4.096-7.823 13.763-10.854 21.586-6.758l216.556 113.459 216.596-113.459c2.376-1.229 4.915-1.843 7.414-1.843 5.775 0 11.346 3.154 14.172 8.561 4.096 7.823 1.106 17.49-6.758 21.586l-220.57 115.507c3.154 2.908 5.161 7.004 5.161 11.633v82.657c0 8.847-7.168 16.015-16.015 16.015s-16.015-7.168-16.015-16.015v-82.657c0-4.588 2.007-8.684 5.161-11.633l-220.57-115.507c-7.823-4.137-10.854-13.804-6.758-21.627z" horiz-adv-x="983" />
<glyph unicode="&#xe60c;" d="M921.6 890.88h-819.2c-56.32 0-102.4-46.080-102.4-102.4v-614.4c0-56.32 46.080-101.376 102.4-101.376h203.776v100.352h-204.8v472.064h821.248v-472.064h-204.8v-100.393h203.776c56.361 0 102.4 45.097 102.4 101.376v614.441c0 56.32-46.039 102.4-102.4 102.4zM133.161 720.404c-21.258 0-38.42 16.753-38.42 37.356s17.162 37.396 38.42 37.396c21.217 0 38.42-16.753 38.42-37.396s-17.203-37.356-38.42-37.356zM235.561 720.404c-21.258 0-38.42 16.753-38.42 37.356s17.162 37.396 38.42 37.396c21.217 0 38.42-16.753 38.42-37.396s-17.203-37.356-38.42-37.356zM922.665 726.016h-616.489v63.488h616.448v-63.488zM509.338 523.551l-248.422-246.866h153.6v-307.405h189.645v307.405h153.6l-248.422 246.866z" />
<glyph unicode="&#xe60d;" d="M984.474 212.214c61.276 111.124 42.066 249.405-48.374 339.845-53.985 53.985-125.747 83.722-202.097 83.722-20.808 0-41.247-2.294-61.112-6.595-13.926 21.545-30.147 41.82-48.742 60.416-68.608 68.608-159.867 106.414-256.942 106.414s-188.293-37.765-256.942-106.414c-119.644-119.644-140.411-306.79-51.364-449.249l-31.826-126.566c-2.212-8.765 0.328-18.022 6.717-24.371s15.606-8.929 24.371-6.758l131.318 33.055c54.108-30.351 115.343-46.367 177.807-46.367 0 0 0 0 0 0 68.813 0 134.676 19.087 191.652 54.641 49.889-38.789 110.756-59.843 174.94-59.843 53.043 0 104.366 14.459 149.217 41.943l95.109-23.921c8.724-2.212 17.981 0.328 24.371 6.717s8.929 15.647 6.758 24.371l-24.863 98.918zM520.028 160.481c-46.121-25.969-98.345-39.895-152.699-39.895-56.771 0-112.353 15.36-160.727 44.483-4.014 2.376-8.602 3.645-13.23 3.645-2.089 0-4.178-0.246-6.267-0.778l-99.86-25.149 24.125 95.805c1.761 7.045 0.451 14.5-3.564 20.521-82.657 123.29-66.355 289.055 38.748 394.158 58.941 58.941 137.298 91.423 220.652 91.423s161.751-32.481 220.692-91.423c12.575-12.575 23.88-26.092 33.997-40.305 10.076-14.213 18.964-29.082 26.46-44.605 20.234-41.82 30.925-87.941 30.925-135.741 0-83.354-32.481-161.71-91.382-220.652-7.987-7.987-16.384-15.401-24.986-22.405-13.558-10.977-27.894-20.603-42.926-29.082zM932.209 209.756l16.957-67.379-64.266 16.179c-7.045 1.802-14.5 0.492-20.562-3.564-38.584-25.887-83.681-39.526-130.417-39.526-47.636 0-93.061 14.131-131.564 40.346 7.455 6.349 14.787 12.984 21.791 19.988 68.608 68.608 106.414 159.867 106.414 256.942 0 52.306-11.1 102.892-31.949 149.217 11.592 1.761 23.388 2.662 35.348 2.662 62.628 0 121.569-24.412 165.847-68.69 76.349-76.349 90.849-194.191 35.267-286.597-3.523-5.816-4.547-12.861-2.908-19.456zM359.178 326.984c-10.445 0-19.087 3.482-25.6 10.281-6.39 6.676-9.667 15.688-9.667 26.747v64.307c0 6.881 0.205 12.329 0.614 16.63 0.614 6.39 3.113 11.878 7.537 16.22 3.768 3.768 8.888 6.799 15.729 9.216 5.816 2.048 13.763 4.055 24.289 6.103 9.871 1.966 17.777 4.956 23.429 8.888s9.994 8.233 12.861 12.739c2.949 4.628 4.956 9.544 6.021 14.541 1.147 5.53 1.761 10.65 1.761 15.237 0 16.466-4.956 28.959-15.155 38.216-10.486 9.503-23.757 14.131-40.632 14.131-13.271 0-24.863-2.785-34.447-8.315-8.97-5.202-16.343-15.77-21.914-31.539-3.4-9.667-7.578-16.22-12.78-19.988-5.161-3.727-11.592-5.612-19.087-5.612-9.093 0-17.285 3.318-24.33 9.83-7.332 6.758-10.936 16.138-10.404 27.075 0.41 14.213 4.628 27.566 12.452 39.567 7.455 11.387 17.039 21.463 28.385 29.942 11.264 8.397 24.044 14.95 37.97 19.456 13.885 4.465 28.14 6.758 42.435 6.758 18.186 0 35.43-2.908 51.282-8.561 15.933-5.734 29.942-13.722 41.656-23.757 11.837-10.199 21.299-22.405 28.14-36.25 6.963-14.090 10.445-29.696 10.445-46.367 0-33.3-9.83-60.621-29.245-81.306-17.326-18.432-39.649-31.293-66.396-38.339v-48.824c0-11.059-3.277-20.070-9.708-26.747-6.554-6.84-15.155-10.281-25.6-10.281zM359.178 197.837c-10.772 0-20.070 3.85-27.73 11.51s-11.551 16.998-11.551 27.73c0 10.732 3.891 20.070 11.551 27.73s16.998 11.551 27.73 11.551c10.772 0 20.111-3.891 27.73-11.551s11.51-16.998 11.51-27.73c0-10.772-3.891-20.111-11.551-27.73s-16.998-11.51-27.73-11.51z" />
<glyph unicode="&#xe60e;" d="M1000.653 52.92l-184.893 184.893c50.668 72.581 80.65 160.686 80.65 255.918 0 247.439-200.622 448.020-447.98 448.020s-448.020-200.581-448.020-448.020c0-247.439 200.581-447.98 448.020-447.98 95.232 0 183.419 29.942 256 80.65l184.893-184.893c30.72-30.72 80.65-30.72 111.37 0s30.72 80.568 0 111.411zM448.307 173.711c-176.701 0-320.020 143.237-320.020 319.98s143.278 320.020 320.020 320.020c176.783 0 320.020-143.237 320.020-320.020 0.082-176.783-143.155-319.98-320.020-319.98z" />
<glyph unicode="&#xe60f;" d="M704.020 750.060h-704.020v-128h704.020v-192.020l256 256-256 256zM960.020 942.080v-512h64.020v512zM320.020 430.080l-256-256 256-256v192.020h704.020v128h-704.020zM0 430.080v-512h64.020v512z" />
<glyph unicode="&#xe610;" d="M320.020 174.080h128v320.020h-128v-320.020zM704.020 750.060v64.020c0 70.656-57.344 128-128 128h-128c-70.656 0-128-57.344-128-128v-64.020h-320.020v-64.020c0-35.308 28.672-64.020 64.020-64.020v-576.020c0-70.656 57.344-128 128-128h640c70.656 0 128 57.344 128 128v576.020c35.389 0 64.020 28.672 64.020 64.020v64.020h-320.020zM448.020 814.080h128v-64.020h-128v64.020zM832.020 110.060c0-35.389-28.59-64.020-64.020-64.020h-512c-35.308 0-64.020 28.59-64.020 64.020v448.020c0 35.308 28.672 64.020 64.020 64.020h512c35.389 0 64.020-28.672 64.020-64.020v-448.020zM576.020 174.080h128v320.020h-128v-320.020z" />
<glyph unicode="&#xe611;" d="M718.643 408.207c30.72 42.189 49.357 93.716 49.357 149.873v128c0 141.394-114.606 256-256 256s-256-114.606-256-256v-128c0-56.197 18.637-107.725 49.357-149.873-179.773-39.731-305.357-129.516-305.357-234.127v-128c0-70.656 57.344-128 128-128h768c70.656 0 128 57.344 128 128v128c0 104.571-125.583 194.355-305.357 234.127zM384 686.080c0 70.656 57.344 128 128 128s128-57.344 128-128v-128c0-70.656-57.344-128-128-128s-128 57.344-128 128v128zM896 46.080h-768v128c0 70.656 171.95 128 384 128 211.968 0 384-57.344 384-128v-128z" />
<glyph unicode="&#xe612;" d="M935.608 231.219c-43.54 26.173-99.901 46.858-165.11 58.737 37.642 35.021 61.522 84.623 61.522 140.083v64.020c0 106.045-86.016 192.020-192.020 192.020-23.060 0-44.81-4.751-65.331-12.165 0.246 4.096 1.352 7.987 1.352 12.165v64.020c0 106.045-86.016 192.020-192.020 192.020-106.045 0-192.020-85.934-192.020-192.020v-64.020c0-55.501 23.921-105.103 61.522-140.083-65.29-11.919-121.651-32.563-165.11-58.737-51.118-16.753-88.392-64.389-88.392-121.16v-64.020c0-70.656 57.344-128 128-128h146.924c-11.264-18.924-18.924-40.305-18.924-64.020v-64.020c0-70.656 57.344-128 128-128h512c70.656 0 128 57.344 128 128v64.020c0 56.771-37.233 104.366-88.392 121.16zM576.020 494.060c0 35.308 28.59 64.020 64.020 64.020s64.020-28.672 64.020-64.020v-128c0-35.389-28.59-64.020-64.020-64.020s-64.020 28.59-64.020 64.020v128zM320.020 750.060c0 35.348 28.672 64.020 64.020 64.020s64.020-28.672 64.020-64.020v-128c0-35.308-28.672-64.020-64.020-64.020s-64.020 28.672-64.020 64.020v128zM128 302.080c0 0 17.981 128 256 128 23.798 0 44.81-1.516 64.389-3.891 1.024-48.046 20.275-90.931 50.422-124.109h-370.811zM384 46.080c0 0 17.981 128 256 128s256-128 256-128h-512z" />
<glyph unicode="&#xe613;" d="M539.73 515.4c-35.185 99.41-129.72 170.68-241.050 170.68-141.435 0-256-114.565-256-256s114.565-256 256-256c111.37 0 205.865 71.27 241.050 170.68h185.59v-170.68h170.68v170.68h85.32v170.68h-441.59zM298.68 344.76c-47.145 0-85.32 38.175-85.32 85.32s38.175 85.32 85.32 85.32 85.32-38.175 85.32-85.32-38.175-85.32-85.32-85.32z" />
<glyph unicode="&#xe614;" d="M505.702 931.789c-260.096-3.482-468.173-217.19-464.691-477.338 3.482-259.994 217.19-468.122 477.286-464.64s468.173 217.19 464.691 477.338c-3.43 260.045-217.19 468.122-477.286 464.64zM557.926 774.81c47.872 0 62.003-27.75 62.003-59.546 0-39.68-31.795-76.39-86.016-76.39-45.363 0-66.918 22.835-65.638 60.518 0 31.795 26.624 75.418 89.651 75.418zM435.149 166.4c-32.717 0-56.678 19.866-33.792 107.213l37.53 154.829c6.502 24.832 7.578 34.765 0 34.765-9.779 0-52.275-17.152-77.414-34.048l-16.333 26.778c79.616 66.458 171.162 105.472 210.381 105.472 32.717 0 38.144-38.707 21.811-98.253l-43.008-162.816c-7.578-28.774-4.301-38.707 3.277-38.707 9.779 0 41.984 11.878 73.626 36.762l18.483-24.832c-77.363-77.363-161.792-107.162-194.56-107.162z" />
<glyph unicode="&#xe615;" d="M512 747.52c-335.923 0-512-247.45-512-286.72s176.077-286.72 512-286.72 512 247.45 512 286.72-176.077 286.72-512 286.72zM512 240.23c-125.645 0-227.533 98.765-227.533 220.57s101.888 220.57 227.533 220.57c125.696 0 227.584-98.765 227.584-220.57s-101.888-220.57-227.584-220.57zM512 460.8c-20.787 22.835 33.997 110.234 0 110.234-62.822 0-113.766-49.357-113.766-110.234s50.944-110.285 113.766-110.285c62.874 0 113.818 49.408 113.818 110.285 0 27.955-96.051-19.456-113.818 0z" />
</font>
</defs>
</svg>
